<svg width="187" height="49" viewBox="0 0 187 49" fill="none" xmlns="http://www.w3.org/2000/svg">
<g filter="url(#filter0_d_77_361)">
<path d="M12.5607 49.0122H184.103L186.986 42.7094V33.4654H186.574V42.7094H158.979L157.744 39.7683H154.448V38.9286H157.126V38.508H154.448C154.448 38.508 153.831 37.4573 152.389 37.4573C150.741 37.4573 150.741 37.6669 150.741 38.0875V39.7683H148.681C148.681 39.7683 148.681 38.297 148.063 38.0875C147.651 37.8779 146.621 37.8779 146.621 37.8779V36.8272H148.886V36.4066H146.209C146.209 36.4066 144.767 35.5669 143.738 35.5669C142.708 35.5669 142.09 35.5669 142.09 36.1971V37.8779H140.648L140.446 37.2478V35.7765L141.269 34.5162V33.6765H139.827V32.8368H136.944V32.2067C136.944 32.2067 137.973 31.7861 138.386 31.7861H138.798V31.5766H137.975C137.975 31.5766 137.357 30.9464 136.74 30.9464C136.122 30.9464 135.71 31.5766 135.71 31.7861C135.71 31.9957 136.327 32.2067 136.327 32.2067V32.8368H135.71V33.8875H133.65L133.032 33.2574V32.4177L134.267 31.367V30.7369H132.414V29.056H131.384V28.2164C131.384 28.2164 132.207 27.5862 132.207 27.1656C132.207 26.7451 131.59 26.326 130.765 26.326C129.944 26.323 129.326 28.0039 129.326 28.0039L129.738 28.634V29.2641L129.326 29.4737V30.945H128.09V31.5751H126.648L126.031 28.8436L127.266 28.2135L125.824 28.0039L125.206 26.9532V25.9025L128.294 25.4819V24.6422H128.089L127.884 25.0628L125.001 25.2724L124.588 21.7012H124.383L124.177 25.2724L120.677 25.4819L120.265 20.4396L121.294 20.23L122.118 19.5999V19.3903H120.675L120.263 6.36566H120.058L119.852 19.3903H117.382V19.8109H118.617L119.44 20.6506V25.2724H119.028V25.9025H119.44L121.088 31.9942V31.9956L120.058 26.7436L119.852 25.4833L121.294 25.6929L122.942 26.323L122.53 28.2134H121.088V28.634H122.323L121.5 31.575H119.852V33.6765L118.41 34.097L116.35 33.0463L115.938 33.2559L116.35 33.6764L117.998 34.5161V35.7764H117.38C117.38 35.7764 117.175 35.1463 116.762 35.1463C116.145 35.1463 116.35 35.7764 116.35 35.7764H114.908V33.886H114.496V34.9367L114.083 35.7764H113.053C113.053 35.7764 112.848 34.7257 112.23 34.9367C111.613 34.9367 111.613 35.7764 111.613 35.7764H110.17L109.14 27.3739L109.964 26.9533V26.3232H108.934V24.2218C108.934 24.2218 110.581 22.7505 110.581 21.9108C110.586 21.0711 107.496 18.3396 107.496 18.3396V17.4999H106.466V18.3396H103.788L103.376 13.7178C103.376 13.7178 103.376 13.5082 103.788 13.7178C104.2 13.7178 104.406 14.9781 104.818 14.9781C105.23 14.9781 106.671 14.7685 106.671 14.5575C106.671 14.5575 106.671 14.1369 106.259 13.5068C105.847 12.8766 103.17 11.6164 103.17 11.6164L103.376 3.00267C103.376 3.00267 104.199 2.37253 105.024 2.79311C105.847 3.21369 106.877 3.42324 107.083 3.42324C107.289 3.42324 108.113 3.21369 108.113 3.21369L107.701 0.482179C107.701 0.482179 107.496 0.691733 106.878 0.691733C106.26 0.691733 104.818 0.0615997 104.407 0.0615997C103.995 0.0615997 103.377 0.482173 103.377 0.482173C103.377 0.482173 103.377 0.272625 103.172 0.272625C102.966 0.272625 102.966 0.693198 102.966 0.693198V10.7767L102.143 10.5672C102.143 10.5672 101.113 9.7275 100.908 9.7275C100.703 9.7275 100.703 10.3576 100.703 10.3576C100.703 10.3576 98.4372 16.0302 98.8495 16.2399C99.0549 16.4495 100.292 16.87 100.703 16.87C101.115 16.87 102.556 14.1385 102.556 14.1385L102.143 18.1305H99.4658L98.4359 17.5003L97.6127 17.7099L96.9936 18.34C96.9936 18.34 100.907 20.2304 101.112 20.651C101.112 21.0716 100.289 22.3318 100.289 22.3318L98.8466 22.7524L98.2289 22.962L98.0235 21.4907L96.9935 21.2811C96.9935 21.2811 97.1989 20.2304 96.5812 20.2304C95.9635 20.2304 95.7581 21.0701 95.9636 21.2811C96.3758 21.4907 96.5812 21.7017 96.5812 21.7017L97.6112 21.9112V23.1715H97.1989V24.0112H99.4643L100.082 24.6413L99.4643 31.7837H99.2589L99.0534 28.8427C99.0534 28.8427 98.0235 27.792 96.1705 27.792H93.9051V29.4728L92.2575 29.4743L92.052 28.4235L91.4343 28.003V27.5824C91.4343 27.5824 92.2575 27.3728 92.2575 26.7427C92.2575 26.3221 91.8452 25.903 91.4343 25.692C91.2289 25.4825 90.8167 25.2714 90.8167 25.2714L90.6113 15.6069H90.4058V25.2714C90.4058 25.2714 89.1705 25.692 89.1705 26.5317C89.1705 27.1618 89.9936 27.792 89.9936 27.792V28.2125H88.9636V30.1029H82.373V33.4646H81.7553L81.5499 33.044H80.5199V34.0947L81.7553 35.1454V36.6167H81.343V37.877H80.7254V36.6167L79.9008 36.6182V34.3072H75.1647L74.3416 32.8359H72.694C72.694 32.8359 72.2817 32.8359 72.2817 33.0455L72.0763 33.255H68.5756V33.4646H71.2532V33.8851L71.4586 34.0947V34.5153C71.4586 34.5153 71.0463 34.7248 70.8409 34.7248C70.6355 34.9344 69.8109 35.5645 69.8109 35.5645H67.9579V35.7741H68.9878V36.1946H69.8109C69.8109 36.1946 70.2232 36.4042 70.4286 36.4042C70.634 36.4042 70.634 36.8248 70.634 36.8248V38.085H70.2218V39.5563H64.8679V37.8755C64.8679 37.8755 66.1033 37.2453 66.1033 35.5645C66.1033 34.0932 65.2801 33.2535 63.8379 33.2535H60.5427C60.5427 33.2535 58.4827 34.0932 58.0719 34.5138C57.6596 35.1439 57.4542 35.5645 57.4542 35.5645L43.6567 34.9344V35.5645L57.0416 36.8248V38.296L54.1586 41.4467L40.1559 40.8165C40.1559 40.8165 39.7436 39.5563 37.6851 39.5563C35.8321 39.5563 0.617162 37.2453 0.617162 37.2453C0.617162 37.2453 -0.205946 37.2453 -0.000528034 37.8754C0.204887 38.296 4.53 40.396 7.41307 43.7577C10.2961 47.1194 12.1492 48.8001 12.1492 48.8001L12.5607 49.0122Z" fill="black"/>
</g>
<defs>
<filter id="filter0_d_77_361" x="-4.03345" y="0.0615997" width="195.02" height="56.9506" filterUnits="userSpaceOnUse" color-interpolation-filters="sRGB">
<feFlood flood-opacity="0" result="BackgroundImageFix"/>
<feColorMatrix in="SourceAlpha" type="matrix" values="0 0 0 0 0 0 0 0 0 0 0 0 0 0 0 0 0 0 127 0" result="hardAlpha"/>
<feOffset dy="4"/>
<feGaussianBlur stdDeviation="2"/>
<feComposite in2="hardAlpha" operator="out"/>
<feColorMatrix type="matrix" values="0 0 0 0 0 0 0 0 0 0 0 0 0 0 0 0 0 0 0.25 0"/>
<feBlend mode="normal" in2="BackgroundImageFix" result="effect1_dropShadow_77_361"/>
<feBlend mode="normal" in="SourceGraphic" in2="effect1_dropShadow_77_361" result="shape"/>
</filter>
</defs>
</svg>
