<svg width="99" height="34" viewBox="0 0 99 34" fill="none" xmlns="http://www.w3.org/2000/svg">
<path d="M4.77605 34.7882L-0.029541 29.8391L15.1653 29.8567L15.1585 27.906H28.0897L28.0792 25.2187H40.9938L40.9503 22.3427H42.3889V18.9884L48.4772 18.9892L49.2182 5.40526H46.5953L46.608 4.70076H49.2168L49.351 -0.0434875H49.7771L49.8663 4.63817H52.3086L52.3311 5.40532H49.9203L50.6277 18.9879H54.3405L54.2962 13.7501C53.6767 13.4552 53.2476 12.8156 53.2476 12.0745C53.2476 11.0536 54.0607 10.2254 55.0628 10.2254H56.2952C57.2972 10.2254 58.1103 11.0521 58.1103 12.0745C58.1103 12.7912 57.709 13.4132 57.1232 13.7188L57.1457 18.784H60.161V23.3716H69.9148V24.4322L95.9676 24.4451L99.0001 24.2625L91.2182 34.7901" fill="black"/>
<path d="M4.77612 28.9845H11.7323V24.0554C11.7323 24.0554 4.87751 23.8506 4.77612 28.9845Z" fill="black"/>
<path d="M26.3048 27.0226H19.3486V22.0935C19.3494 22.0935 26.205 21.8887 26.3048 27.0226Z" fill="black"/>
<path d="M82.6405 23.8498H75.6843V18.9207C75.6843 18.9199 82.5391 18.7152 82.6405 23.8498Z" fill="black"/>
<path d="M6.14904 24.9217L1.96078 23.3699L1.70801 24.0774L5.45674 25.4673C5.45524 25.4673 5.78227 25.1365 6.14905 24.9217H6.14904Z" fill="black"/>
<path d="M24.717 22.9129L28.9061 21.3595L29.1588 22.067L25.4101 23.4569C25.4101 23.4569 25.0831 23.1261 24.717 22.9129V22.9129Z" fill="black"/>
<path d="M80.9893 19.699L85.1783 18.1456L85.4311 18.8532L81.6823 20.2431C81.6831 20.2446 81.356 19.9137 80.9893 19.699V19.699Z" fill="black"/>
</svg>
