<svg width="166" height="39" viewBox="0 0 166 39" fill="none" xmlns="http://www.w3.org/2000/svg">
<path fill-rule="evenodd" clip-rule="evenodd" d="M70.0259 21.5027L70 19.3617H107.782L107.756 21.5027H70.0259ZM69.9805 17.5842L69.9611 16.1233H107.819L107.799 17.5842H69.9805ZM69.9379 14.3459L69.9231 12.9086H107.859L107.844 14.3459H69.9379ZM69.899 11.1312L69.8879 10.107L66.6995 10.2106V16.5271L64.7124 16.4996V13.2447H61.7213V16.4572L59.1915 16.4211L59.2128 11.7313L56.6979 10.6144L48.2079 10.6018L48.2357 14.4497L36.0144 18.3917L35.982 20.7897L28.3841 22.8891L22.8335 22.7925V25.8958H21.3078V28.3205L15.9035 28.319V26.3177L18.8067 26.5816L18.9243 25.1647L15.9036 24.8898V24.4004H13.8332V24.7044L2.62903 23.8695L2.61143 24.6557L13.8331 26.1307V28.319H8.17318L7.62386 27.2618L-0.00366211 27.2657C15.2023 37.6044 8.42612 39.3395 21.9924 38.9617C70.2751 38.9782 108.351 38.9782 156.605 38.9617C162.213 38.5744 165.239 29.8459 165.494 28.319H162.195V26.2031C162.662 26.3358 165.501 25.559 165.996 24.977C165.404 24.5403 162.651 24.7335 162.098 24.1311V28.319L156.468 28.3206V25.8959H154.942V22.7925H153.803L141.792 20.7897L141.759 18.3917L129.51 13.4214L129.305 0.181249L121.1 0.00845337L121.079 10.6142L118.564 11.7326L118.585 16.4208L116.053 16.4569V13.2444H113.065V16.4994L111.076 16.5269V10.2104L107.889 10.1067L107.876 11.1309H69.8953L69.899 11.1312ZM103.566 23.362H104.851V25.0302H103.566V23.362ZM88.7273 23.362H90.0122V25.0302H88.7273V23.362ZM73.8911 23.362H75.1759V25.0302H73.8911V23.362ZM113.326 16.4942L115.795 16.4596V14.0727H113.326V16.4942ZM144.916 23.5198H146.227V25.2211H144.916V23.5198ZM141.519 23.5198H142.832V25.2211H141.519V23.5198ZM64.4494 16.4942L61.9817 16.4596V14.0727H64.4494V16.4942ZM32.8594 23.5198H31.5505V25.2211H32.8594V23.5198ZM36.2581 23.5198H34.9474V25.2211H36.2581V23.5198Z" fill="black"/>
</svg>
