<svg width="154" height="58" viewBox="0 0 154 58" fill="none" xmlns="http://www.w3.org/2000/svg">
<path fill-rule="evenodd" clip-rule="evenodd" d="M0 34.105C3.79588 30.3416 7.59176 27.1158 7.04946 44.32C6.5072 62.5995 61.2751 49.6962 63.9855 57.7607C66.6967 51.8469 63.4432 48.6211 58.0206 47.5458H41.2104C39.0413 47.5458 41.2104 44.32 43.3795 44.32H93.2667C97.6048 42.7071 100.316 38.9438 101.943 35.7178H50.4278C48.801 35.7178 50.9701 32.492 52.5969 32.492H115.497C119.835 31.4167 122.547 27.1158 124.173 23.8898H60.1887C58.0196 23.8898 60.1887 20.664 62.3577 20.664H132.309C136.105 19.5888 139.901 16.3629 141.527 12.5995H69.9504C67.7813 12.5995 69.9504 9.37372 72.1194 9.37372H144.24C148.578 7.76083 152.374 3.99751 154.001 0.23407H41.7544C20.6069 0.771691 1.08517 21.7385 0.000572 34.1037L0 34.105Z" fill="black"/>
</svg>
