<svg width="155" height="58" viewBox="0 0 155 58" fill="none" xmlns="http://www.w3.org/2000/svg">
<path fill-rule="evenodd" clip-rule="evenodd" d="M155 34.105C151.179 30.3416 147.359 27.1158 147.905 44.32C148.451 62.5995 93.3271 49.6962 90.5991 57.7607C87.8702 51.8469 91.1448 48.6211 96.6026 47.5458H113.522C115.705 47.5458 113.522 44.32 111.339 44.32H61.1277C56.7614 42.7071 54.0325 38.9438 52.395 35.7178H104.245C105.882 35.7178 103.699 32.492 102.062 32.492H38.7529C34.3866 31.4167 31.6577 27.1158 30.0202 23.8898H94.4205C96.6037 23.8898 94.4205 20.664 92.2374 20.664H21.8319C18.0114 19.5888 14.1909 16.3629 12.5536 12.5995H84.5954C86.7786 12.5995 84.5954 9.37372 82.4123 9.37372H9.82355C5.45718 7.76083 1.63666 3.99751 -0.000579834 0.23407H112.974C134.259 0.771691 153.908 21.7385 154.999 34.1037L155 34.105Z" fill="black"/>
</svg>
