<svg width="134" height="26" viewBox="0 0 134 26" fill="none" xmlns="http://www.w3.org/2000/svg">
<path fill-rule="evenodd" clip-rule="evenodd" d="M68.0707 14.6609C72.7802 9.91769 76.6328 8.19312 76.2049 19.4041C76.2049 27.165 94.6145 21.5603 95.4705 25.0095C96.7552 22.4225 95.0421 21.1287 92.9019 20.698H85.6237C84.7675 20.698 85.6237 18.9733 86.4799 18.9733H108.315C110.027 18.5418 111.312 16.8171 111.739 15.524H89.9048C89.0486 15.524 89.9048 14.2301 90.761 14.2301H117.732C119.444 13.3678 120.729 11.6432 121.157 10.3493H94.1859C92.9013 10.3493 94.1859 9.05548 95.0421 9.05548H124.582C126.294 8.62394 128.007 6.89924 128.863 5.17466H98.0386C97.1824 5.17466 98.0386 3.88082 98.8948 3.88082H129.719C131.86 3.44928 133.144 1.72457 134 0H99.7511C89.4758 0 69.3538 1.29384 68.0693 14.6601L68.0707 14.6609Z" fill="black"/>
<path fill-rule="evenodd" clip-rule="evenodd" d="M65.9305 14.6609C61.2209 9.91769 57.7962 8.19312 57.7962 19.4041C58.2247 27.165 39.8151 21.5603 38.5306 25.0095C37.2459 22.4225 38.9591 21.1287 41.0992 20.698H48.3774C49.2336 20.698 48.3774 18.9733 47.5212 18.9733H26.1154C23.9744 18.5418 23.1184 16.8171 22.2621 15.524H44.0967C45.3814 15.524 44.0967 14.2301 43.2405 14.2301H16.6967C14.5557 13.3678 13.2718 11.6432 12.8434 10.3493H40.2429C41.0991 10.3493 40.2429 9.05548 39.3867 9.05548H9.41815C7.70574 8.62394 5.99326 6.89924 5.13718 5.17466H35.9614C36.8176 5.17466 35.9614 3.88082 35.1052 3.88082H4.28097C2.14001 3.44928 0.856079 1.72457 0 0H34.6777C44.9529 0 65.075 1.29384 65.9307 14.6601L65.9305 14.6609Z" fill="black"/>
</svg>
